<svg id="visual" viewBox="0 0 900 600" width="900" height="600" xmlns="http://www.w3.org/2000/svg" xmlns:xlink="http://www.w3.org/1999/xlink" version="1.1"><path d="M0 272L37.5 291C75 310 150 348 225 342.3C300 336.7 375 287.3 450 302.3C525 317.3 600 396.7 675 430C750 463.3 825 450.7 862.5 444.3L900 438L900 601L862.5 601C825 601 750 601 675 601C600 601 525 601 450 601C375 601 300 601 225 601C150 601 75 601 37.5 601L0 601Z" fill="#D06836" stroke-linecap="round" stroke-linejoin="miter"></path></svg>